# xmcd
#
# Track frame offsets:
#	150
#	17100
#	33402
#	51262
#	66133
#	84275
#	99389
#	120602
#	141121
#	152921
#	167379
#	180630
#	198769
#	214218
#	230745
#	248062
#	263373
#
# Disc length: 3744 seconds
#
# Revision: 0
# Processed by: cddbd v1.5.1PL2 Copyright (c) Steve Scherf et al.
# Submitted via: EasyCDDAExtractor 8.2.2.1
#
DISCID=dc0e9e11
DTITLE=Various Artist - Now! Country
DYEAR=2006
DGENRE=Country
TTITLE0=Keith Urban - Days Go By
TTITLE1=Sugarland - Something More
TTITLE2=Tim Mcgraw - Do You Want Fries With That
TTITLE3=Jo Dee Messina - My Give A Damn's Busted
TTITLE4=Trace Adkins - Honky Tonk Badonkadonk
TTITLE5=Big and Rich - Save A Horse (Ride A Cowboy)
TTITLE6=Dierks Bentley - Come A Little Closer
TTITLE7=Lee Ann Womack - I May Hate Myself In The Morning
TTITLE8=George Canyon - One Good Friend
TTITLE9=The Road Hammers - East Bound And Down
TTITLE10=Leann Rimes - Nothin' 'Bout Love Makes Sense
TTITLE11=Aaron Pritchett - Big Wheel
TTITLE12=Blake Shelton - Some Beach
TTITLE13=Jamie O'nel - Somebody's Hero
TTITLE14=Adam Gregory - Get It On
TTITLE15=Kenny Rogers - I Can't Unlove You
TTITLE16=Chris Cagle - Miss Me Baby
EXTD=
EXTT0=
EXTT1=
EXTT2=
EXTT3=
EXTT4=
EXTT5=
EXTT6=
EXTT7=
EXTT8=
EXTT9=
EXTT10=
EXTT11=
EXTT12=
EXTT13=
EXTT14=
EXTT15=
EXTT16=
PLAYORDER=
